<svg xmlns="http://www.w3.org/2000/svg" xmlns:xlink="http://www.w3.org/1999/xlink" width="500" zoomAndPan="magnify" viewBox="0 0 375 374.999991" height="500" preserveAspectRatio="xMidYMid meet" version="1.0"><defs><clipPath id="a6d28eab9e"><path d="M 5.519531 45.859375 L 317 45.859375 L 317 284.359375 L 5.519531 284.359375 Z M 5.519531 45.859375 " clip-rule="nonzero"/></clipPath><clipPath id="e0aa4595df"><path d="M 347 122 L 370.769531 122 L 370.769531 146 L 347 146 Z M 347 122 " clip-rule="nonzero"/></clipPath><clipPath id="b9dd38c780"><path d="M 144 151 L 333 151 L 333 284.359375 L 144 284.359375 Z M 144 151 " clip-rule="nonzero"/></clipPath></defs><g clip-path="url(#a6d28eab9e)"><path fill="#00afef" d="M 302.367188 89.195312 L 316.363281 89.195312 L 305.527344 66.863281 L 305.476562 66.761719 L 295.332031 45.859375 L 282.246094 63.472656 L 263.148438 89.195312 L 275.71875 89.195312 C 273.851562 102.398438 270.664062 115.34375 266.253906 127.824219 C 264.234375 133.542969 261.957031 139.164062 259.425781 144.664062 C 254.433594 155.539062 248.472656 165.960938 241.613281 175.765625 C 241.515625 176.101562 241.417969 176.433594 241.316406 176.761719 C 241.082031 176.898438 240.847656 177.035156 240.613281 177.175781 C 235.0625 184.960938 228.945312 192.347656 222.285156 199.261719 C 213.824219 208.054688 204.492188 216.082031 194.363281 223.183594 C 194.175781 223.316406 193.980469 223.453125 193.792969 223.582031 C 179.6875 233.398438 164.042969 241.429688 147.058594 247.242188 L 145.636719 247.722656 C 126.074219 254.25 104.75 257.847656 81.949219 257.863281 C 81.894531 257.863281 81.835938 257.863281 81.78125 257.863281 C 72.089844 257.863281 63.046875 255.089844 55.402344 250.289062 C 41.402344 241.496094 32.09375 225.917969 32.09375 208.171875 C 32.09375 181.5625 53.023438 159.824219 79.320312 158.542969 C 80.132812 158.503906 80.953125 158.484375 81.78125 158.484375 C 90.640625 158.484375 98.964844 160.800781 106.164062 164.871094 C 105.84375 162.167969 105.679688 159.414062 105.679688 156.625 C 105.679688 149.785156 106.671875 143.175781 108.519531 136.9375 C 117.003906 108.253906 143.554688 87.320312 174.984375 87.320312 C 203.027344 87.320312 227.183594 103.984375 238.089844 127.945312 C 240.835938 133.980469 242.746094 140.476562 243.660156 147.289062 C 244.074219 150.339844 244.285156 153.457031 244.285156 156.625 C 244.285156 156.800781 244.285156 156.976562 244.285156 157.15625 C 244.660156 156.5 245.035156 155.839844 245.40625 155.179688 C 247.148438 152.070312 248.804688 148.910156 250.371094 145.710938 C 254.984375 136.277344 258.820312 126.480469 261.839844 116.425781 C 258.207031 108.59375 253.542969 101.335938 248.03125 94.820312 C 230.476562 74.101562 204.265625 60.941406 174.984375 60.941406 C 130.625 60.941406 93.304688 91.148438 82.472656 132.109375 C 82.242188 132.109375 82.011719 132.105469 81.78125 132.105469 C 39.773438 132.105469 5.714844 166.171875 5.714844 208.171875 C 5.714844 240.902344 26.394531 268.8125 55.402344 279.539062 C 63.566406 282.558594 72.390625 284.21875 81.59375 284.238281 L 81.78125 284.238281 C 81.855469 284.238281 81.933594 284.238281 82.007812 284.238281 C 82.027344 284.238281 82.042969 284.238281 82.058594 284.238281 C 126.640625 284.1875 167.9375 271.488281 202.527344 249.296875 L 205.574219 247.304688 C 211.96875 243.050781 218.125 238.46875 224.023438 233.578125 C 239.835938 220.457031 253.777344 205.128906 265.40625 187.972656 C 268.785156 183 271.964844 177.867188 274.941406 172.597656 C 279.277344 164.910156 283.183594 156.914062 286.621094 148.648438 C 293.882812 131.1875 299.054688 112.503906 301.832031 92.875 L 302.355469 89.179688 Z M 82.546875 284.242188 C 83.441406 284.234375 83.441406 284.234375 82.546875 284.242188 Z M 82.050781 284.246094 L 82.011719 284.246094 Z M 82.050781 284.246094 " fill-opacity="1" fill-rule="evenodd"/></g><path fill="#d9d9d9" d="M 177.488281 224.847656 L 177.488281 145.613281 L 149.03125 145.613281 L 149.03125 238.339844 C 158.898438 234.671875 168.417969 230.160156 177.488281 224.847656 Z M 177.488281 224.847656 " fill-opacity="1" fill-rule="evenodd"/><path fill="#d9d9d9" d="M 114.941406 173.136719 L 111.125 173.136719 L 111.125 248.015625 C 120.746094 246.597656 130.253906 244.457031 139.582031 241.558594 L 139.582031 173.132812 L 114.941406 173.132812 Z M 114.941406 173.136719 " fill-opacity="1" fill-rule="evenodd"/><path fill="#00afef" d="M 215.394531 118.097656 L 186.933594 118.097656 L 186.933594 218.914062 C 187.757812 218.363281 188.570312 217.804688 189.378906 217.242188 L 189.933594 216.855469 C 199.058594 210.453125 207.578125 203.21875 215.386719 195.269531 L 215.386719 118.09375 Z M 215.394531 118.097656 " fill-opacity="1" fill-rule="evenodd"/><path fill="#00afef" d="M 316.160156 145.199219 L 339.988281 145.199219 C 343.996094 145.199219 347.265625 148.476562 347.265625 152.484375 L 347.265625 176.3125 C 347.265625 180.316406 343.996094 183.59375 339.988281 183.59375 L 316.160156 183.59375 C 312.15625 183.59375 308.878906 180.316406 308.878906 176.3125 L 308.878906 152.484375 C 308.878906 148.476562 312.15625 145.199219 316.160156 145.199219 Z M 316.160156 145.199219 " fill-opacity="1" fill-rule="evenodd"/><g clip-path="url(#e0aa4595df)"><path fill="#d9d9d9" d="M 351.9375 122.570312 L 366.316406 122.570312 C 368.738281 122.570312 370.714844 124.546875 370.714844 126.964844 L 370.714844 141.34375 C 370.714844 143.757812 368.738281 145.734375 366.316406 145.734375 L 351.9375 145.734375 C 349.527344 145.734375 347.546875 143.757812 347.546875 141.34375 L 347.546875 126.964844 C 347.546875 124.546875 349.523438 122.570312 351.9375 122.570312 Z M 351.9375 122.570312 " fill-opacity="1" fill-rule="evenodd"/></g><path fill="#00afef" d="M 334.03125 109.898438 L 342.042969 109.898438 C 343.390625 109.898438 344.488281 111 344.488281 112.34375 L 344.488281 120.355469 C 344.488281 121.703125 343.390625 122.800781 342.042969 122.800781 L 334.03125 122.800781 C 332.6875 122.800781 331.585938 121.703125 331.585938 120.355469 L 331.585938 112.34375 C 331.585938 111 332.6875 109.898438 334.03125 109.898438 Z M 334.03125 109.898438 " fill-opacity="1" fill-rule="evenodd"/><path fill="#00afef" d="M 355.777344 107.359375 L 359.78125 107.359375 C 360.457031 107.359375 361.003906 107.914062 361.003906 108.582031 L 361.003906 112.589844 C 361.003906 113.265625 360.457031 113.8125 359.78125 113.8125 L 355.777344 113.8125 C 355.105469 113.8125 354.554688 113.261719 354.554688 112.589844 L 354.554688 108.582031 C 354.554688 107.910156 355.105469 107.359375 355.777344 107.359375 Z M 355.777344 107.359375 " fill-opacity="1" fill-rule="evenodd"/><g clip-path="url(#b9dd38c780)"><path fill="#d9d9d9" d="M 293.441406 152.429688 Z M 293.277344 152.820312 Z M 291.03125 157.964844 Z M 289.589844 161.097656 Z M 285.183594 169.976562 Z M 284.984375 170.355469 Z M 263.039062 257.871094 L 203.453125 257.871094 C 185.074219 269.222656 165.355469 277.769531 144.824219 283.472656 L 144.824219 284.253906 L 263.039062 284.253906 C 301.605469 284.253906 332.875 252.976562 332.875 214.414062 C 332.875 205.53125 331.21875 197.039062 328.195312 189.226562 L 316.160156 189.226562 C 309.054688 189.226562 303.242188 183.410156 303.242188 176.308594 L 303.242188 157.300781 C 300.242188 155.191406 297.078125 153.304688 293.753906 151.675781 L 293.605469 152.03125 L 293.59375 152.0625 L 293.433594 152.441406 L 293.269531 152.828125 L 293.109375 153.203125 L 293.101562 153.226562 L 292.949219 153.582031 L 292.933594 153.625 L 292.785156 153.96875 L 292.757812 154.027344 L 292.621094 154.347656 L 292.585938 154.417969 L 292.457031 154.722656 L 292.414062 154.816406 L 292.242188 155.207031 L 292.121094 155.476562 L 292.066406 155.601562 L 291.957031 155.855469 L 291.894531 156 L 291.882812 156.023438 L 291.722656 156.390625 L 291.625 156.609375 L 291.542969 156.789062 L 291.457031 156.992188 L 291.367188 157.183594 L 291.351562 157.226562 L 291.011719 157.972656 L 290.945312 158.125 L 290.835938 158.363281 L 290.777344 158.496094 L 290.660156 158.753906 L 290.605469 158.871094 L 290.476562 159.144531 L 290.433594 159.246094 L 290.296875 159.539062 L 290.257812 159.621094 L 290.117188 159.929688 L 290.085938 159.992188 L 289.933594 160.316406 L 289.914062 160.363281 L 289.753906 160.707031 L 289.738281 160.734375 L 289.386719 161.484375 L 289.207031 161.855469 L 289.199219 161.878906 L 289.03125 162.230469 L 289.015625 162.269531 L 288.855469 162.605469 L 288.828125 162.660156 L 288.675781 162.980469 L 288.644531 163.050781 L 288.496094 163.351562 L 288.453125 163.4375 L 288.265625 163.824219 L 288.132812 164.09375 L 288.074219 164.214844 L 287.953125 164.464844 L 287.890625 164.601562 L 287.769531 164.835938 L 287.695312 164.988281 L 287.5 165.378906 L 287.3125 165.765625 L 287.21875 165.949219 L 287.117188 166.152344 L 287.03125 166.320312 L 286.921875 166.535156 L 286.847656 166.6875 L 286.730469 166.921875 L 286.660156 167.054688 L 286.476562 167.421875 L 286.339844 167.6875 L 286.105469 168.15625 L 285.953125 168.457031 L 285.917969 168.523438 L 285.753906 168.839844 L 285.730469 168.890625 L 285.558594 169.222656 L 285.539062 169.257812 L 285.359375 169.601562 L 285.351562 169.625 L 285.160156 169.992188 L 284.960938 170.371094 L 284.777344 170.71875 L 284.761719 170.75 L 284.582031 171.082031 L 284.558594 171.128906 L 284.390625 171.445312 L 284.355469 171.507812 L 284.195312 171.8125 L 284.152344 171.890625 L 284 172.175781 L 283.949219 172.269531 L 283.808594 172.539062 L 283.75 172.652344 L 283.613281 172.902344 L 283.546875 173.03125 L 283.417969 173.265625 L 283.339844 173.410156 L 282.71875 174.542969 L 282.625 174.710938 L 282.507812 174.917969 L 282.425781 175.070312 L 282.296875 175.292969 L 282.222656 175.429688 C 296.59375 182.519531 306.480469 197.316406 306.480469 214.425781 C 306.480469 238.421875 287.019531 257.886719 263.023438 257.882812 Z M 263.039062 257.871094 " fill-opacity="1" fill-rule="evenodd"/></g></svg>